<?xml version="1.0" standalone="no"?>
<!DOCTYPE svg PUBLIC "-//W3C//DTD SVG 20010904//EN"
 "http://www.w3.org/TR/2001/REC-SVG-20010904/DTD/svg10.dtd">
<svg version="1.0" xmlns="http://www.w3.org/2000/svg"
 width="1918.000000pt" height="1200.000000pt" viewBox="0 0 1918.000000 1200.000000"
 preserveAspectRatio="xMidYMid meet">

<g transform="translate(0.000000,1200.000000) scale(0.100000,-0.100000)"
fill="#000000" stroke="none">
<path d="M0 6000 l0 -6000 9590 0 9590 0 0 6000 0 6000 -9590 0 -9590 0 0
-6000z m10335 3565 c65 -8 123 -15 128 -15 4 0 7 -15 5 -32 l-3 -33 -61 3 -62
3 -5 -33 c-4 -18 -18 -136 -32 -263 -15 -126 -30 -234 -34 -238 -5 -4 -20 -5
-35 -1 -33 8 -33 0 1 296 15 131 23 241 19 245 -4 4 -31 10 -59 13 -40 4 -53
9 -55 23 -10 52 7 55 193 32z m-939 -29 c3 -14 3 -29 0 -34 -3 -5 -46 -15 -96
-23 -80 -11 -90 -15 -89 -33 0 -28 25 -165 30 -170 2 -3 37 2 78 9 41 8 78 12
82 9 5 -3 9 -18 9 -34 0 -32 -6 -35 -93 -46 -31 -3 -59 -10 -62 -14 -2 -4 3
-50 13 -103 19 -110 9 -105 129 -83 78 14 93 9 93 -30 0 -13 -8 -25 -17 -28
-36 -10 -243 -40 -247 -35 -11 10 -103 585 -96 593 10 10 178 43 227 45 27 1
34 -4 39 -23z m1572 -414 l2 -322 -22 0 c-43 0 -52 15 -53 80 l0 62 -80 24
c-44 13 -81 23 -83 24 -1 0 -16 -22 -33 -50 -32 -52 -58 -63 -91 -37 -15 11
-5 30 85 167 56 85 135 206 175 268 40 62 78 112 85 109 9 -3 13 -86 15 -325z
m-2235 242 c32 -17 33 -24 9 -54 -16 -20 -21 -21 -41 -11 -34 19 -81 10 -104
-20 -17 -23 -18 -31 -8 -62 15 -43 32 -55 144 -97 103 -40 159 -85 177 -147
41 -138 -100 -250 -230 -183 -43 22 -48 34 -25 64 14 19 16 19 50 3 49 -23 77
-21 109 8 58 54 22 133 -79 169 -120 43 -174 76 -200 120 -29 49 -33 112 -11
155 38 72 128 96 209 55z m-582 -261 c6 -6 6 -19 0 -37 -10 -24 -14 -26 -49
-20 -74 12 -116 -38 -86 -101 18 -39 59 -58 164 -76 113 -19 157 -45 191 -111
69 -135 -64 -273 -206 -214 -40 17 -39 16 -23 51 8 18 17 24 27 19 9 -3 32 -8
51 -11 67 -10 116 57 85 117 -22 43 -49 57 -149 75 -111 21 -134 29 -169 63
-83 78 -75 186 17 244 23 14 44 18 84 15 29 -2 57 -8 63 -14z m3818 -139 c55
-36 101 -70 101 -74 0 -4 -8 -18 -18 -30 l-18 -22 -70 44 c-38 24 -74 47 -81
51 -8 5 -30 -19 -63 -68 -28 -41 -53 -81 -56 -89 -3 -8 19 -29 61 -56 36 -23
65 -46 65 -50 0 -4 -8 -18 -18 -30 l-18 -23 -66 42 c-36 22 -68 41 -70 41 -3
0 -36 -47 -73 -105 -37 -58 -70 -105 -75 -105 -4 0 -18 9 -31 19 -22 18 -23
21 -9 44 134 218 308 476 321 477 9 0 62 -30 118 -66z m-4244 -419 c229 -151
265 -178 254 -191 -29 -36 -48 -37 -98 -5 -26 17 -52 31 -57 31 -5 0 -36 -24
-68 -53 l-59 -53 22 -48 c11 -27 21 -54 21 -61 0 -16 -36 -48 -50 -43 -9 3
-207 446 -245 550 -13 34 -11 48 6 48 4 0 128 -79 274 -175z m4724 3 c-38 -95
-261 -533 -272 -536 -7 -1 -22 7 -32 18 -18 20 -18 22 9 77 l27 56 -28 29
c-15 17 -45 43 -65 59 l-37 30 -51 -32 c-49 -30 -51 -30 -76 -14 -14 9 -24 23
-22 31 4 21 540 336 552 324 5 -5 4 -22 -5 -42z m-5304 -299 c48 -23 100 -75
116 -117 6 -15 9 -44 7 -66 l-2 -39 124 -37 c68 -20 125 -41 127 -47 2 -5 -5
-21 -16 -34 l-19 -24 -78 24 c-194 59 -185 57 -200 36 -8 -10 -14 -21 -13 -24
0 -3 40 -39 90 -79 49 -40 89 -76 89 -81 0 -5 -8 -19 -19 -32 l-19 -23 -73 59
c-268 219 -384 319 -387 331 -5 21 82 124 126 151 46 29 90 29 147 2z m5755
-154 c42 -22 73 -71 77 -124 5 -49 -14 -108 -42 -131 -14 -11 -19 -10 -37 8
-20 20 -20 22 -4 55 22 48 20 70 -10 106 -21 26 -33 31 -67 31 -69 -1 -168
-55 -255 -139 -88 -86 -103 -142 -51 -193 28 -28 34 -30 80 -25 47 6 50 5 60
-21 15 -40 -10 -54 -88 -50 -53 3 -68 9 -94 33 -65 62 -75 125 -35 210 43 91
189 208 306 247 60 19 114 17 160 -7z m-6154 -404 c50 -23 92 -63 100 -97 5
-20 11 -24 28 -19 61 18 82 16 136 -12 111 -56 128 -135 59 -263 -22 -41 -44
-79 -49 -83 -12 -13 -536 279 -532 297 1 8 19 44 40 81 58 106 128 137 218 96z
m6519 -181 c8 -16 15 -31 15 -34 0 -18 -335 -160 -356 -152 -30 12 -10 33 79
86 104 62 228 129 239 130 4 0 14 -13 23 -30z m-481 -229 c37 -41 -14 -97 -60
-66 -30 19 -31 49 -2 69 29 21 41 20 62 -3z m-2736 -110 c324 -109 471 -167
588 -232 l74 -40 0 -324 c0 -333 -5 -388 -45 -511 -17 -49 -92 -205 -104 -214
-3 -3 -25 -31 -49 -62 -114 -154 -289 -279 -488 -349 -111 -40 -164 -41 -269
-5 -243 85 -414 215 -547 416 -63 97 -97 172 -128 286 -20 71 -23 110 -26 389
-3 171 -2 325 1 343 7 41 47 66 210 138 123 54 586 214 618 214 10 0 84 -22
165 -49z m-2578 -1259 c36 -29 30 -83 -19 -174 l-42 -77 38 -3 c27 -2 39 -8
41 -20 3 -16 -5 -18 -67 -18 -39 0 -71 2 -71 5 0 3 20 43 45 89 50 92 67 139
58 162 -6 16 -49 19 -58 4 -9 -15 -35 -12 -35 4 0 19 39 46 66 46 12 0 32 -8
44 -18z m299 -1 c37 -37 49 -119 32 -210 -9 -46 -32 -75 -69 -86 -36 -11 -78
39 -87 104 -10 72 2 155 26 185 25 32 71 34 98 7z m4106 -137 c0 -134 -2 -149
-17 -152 -16 -3 -18 8 -18 117 0 67 -3 121 -6 121 -3 0 -14 -5 -25 -10 -16 -9
-19 -7 -19 9 0 22 56 74 74 68 7 -2 11 -51 11 -153z m271 135 c29 -33 32 -142
4 -206 -26 -62 -76 -115 -85 -90 -4 9 7 33 25 58 17 24 28 44 23 45 -4 1 -21
5 -36 8 -50 11 -73 105 -42 166 23 45 79 55 111 19z m-5654 -106 c26 -26 48
-52 48 -58 0 -16 -84 -95 -101 -95 -14 0 -75 58 -93 88 -6 10 7 30 40 63 27
27 51 49 53 49 3 0 27 -21 53 -47z m6890 0 c26 -26 48 -50 48 -54 0 -11 -90
-99 -102 -99 -15 0 -98 80 -98 94 0 10 90 106 99 106 3 0 27 -21 53 -47z
m-4748 -519 c3 -9 6 -24 6 -35 0 -27 33 -89 62 -116 54 -51 72 -53 444 -53
376 0 411 -4 524 -58 53 -26 158 -119 194 -172 l17 -25 21 30 c39 54 112 120
172 154 114 64 115 64 531 70 345 5 383 8 418 25 47 23 96 92 105 149 l7 42
68 3 67 3 0 -44 c0 -24 -3 -47 -7 -51 -4 -3 -8 -16 -10 -27 -9 -62 -98 -162
-179 -204 l-59 -30 -385 -5 c-373 -5 -387 -6 -443 -29 -77 -30 -158 -110 -197
-193 -17 -34 -30 -76 -30 -91 0 -53 -15 -67 -73 -67 -29 0 -57 4 -62 8 -6 4
-16 33 -22 65 -7 32 -22 78 -35 103 -30 60 -115 139 -185 172 l-58 27 -385 5
-385 5 -55 26 c-71 33 -138 100 -171 169 -27 56 -44 134 -34 151 4 5 35 9 70
9 48 0 64 -4 69 -16z m3884 -949 c28 -20 52 -39 52 -44 0 -4 -34 -58 -75 -119
-41 -61 -75 -115 -75 -120 0 -5 10 -16 23 -24 12 -8 34 -22 48 -31 l26 -17 67
100 67 101 37 -21 c20 -12 48 -29 62 -40 l24 -18 -68 -102 c-37 -56 -66 -103
-64 -104 31 -24 99 -66 105 -66 4 0 41 50 82 111 40 61 79 113 87 116 12 5 97
-47 109 -68 8 -12 -218 -357 -239 -365 -14 -5 -576 364 -576 379 0 4 46 76
101 160 127 191 139 207 147 207 4 0 31 -16 60 -35z m-5181 -40 c83 -34 151
-151 156 -268 l2 -62 -70 0 -70 0 -7 62 c-9 79 -26 115 -60 127 -22 8 -32 6
-49 -10 -20 -18 -21 -24 -13 -104 14 -154 10 -205 -22 -257 -73 -117 -239
-125 -335 -15 -47 53 -81 135 -87 208 -5 73 -6 72 77 76 l54 3 12 -71 c14 -81
27 -109 56 -125 33 -17 69 -2 85 36 12 29 12 48 3 107 -27 174 28 285 150 308
40 8 70 4 118 -15z m1678 -180 c16 -15 25 -36 25 -55 0 -28 -3 -30 -34 -30
-30 0 -35 3 -38 27 -4 34 -32 42 -47 14 -16 -29 -6 -44 60 -95 l59 -46 0 -60
c0 -80 -19 -100 -95 -100 -64 0 -90 19 -100 74 -9 44 -1 56 36 56 24 0 29 -4
29 -24 0 -38 10 -56 31 -56 23 0 40 38 32 69 -3 11 -26 34 -52 51 -53 33 -71
63 -71 116 0 52 36 84 95 84 35 0 52 -6 70 -25z m1419 3 c25 -23 26 -26 27
-167 2 -139 1 -146 -21 -163 -15 -12 -39 -18 -77 -18 -44 0 -58 5 -78 25 -24
23 -25 29 -24 152 0 70 4 136 8 147 19 48 121 62 165 24z m-1284 -53 l0 -65
30 0 30 0 0 65 0 65 35 0 35 0 -2 -177 -3 -178 -30 0 -30 0 -3 76 c-2 63 -6
78 -20 81 -36 10 -42 -2 -42 -78 0 -59 -3 -74 -15 -75 -54 -5 -50 -18 -53 174
l-2 177 35 0 35 0 0 -65z m350 40 c0 -23 -3 -25 -50 -25 l-50 0 0 -40 0 -40
45 0 c43 0 45 -1 45 -30 0 -29 -2 -30 -45 -30 l-45 0 0 -54 0 -55 52 -3 c49
-3 53 -5 53 -28 -1 -25 -2 -25 -88 -28 l-87 -3 0 181 0 180 85 0 c84 0 85 0
85 -25z m226 0 c22 -34 15 -132 -11 -152 -18 -13 -18 -15 4 -86 13 -39 26 -78
28 -84 4 -9 -5 -13 -25 -13 -37 0 -44 9 -71 93 -13 37 -27 67 -31 67 -5 0 -10
-35 -12 -77 l-3 -78 -30 0 -30 0 -3 178 -2 177 85 0 c79 0 86 -2 101 -25z
m232 13 c16 -16 16 -135 0 -141 -10 -3 -8 -9 5 -24 17 -20 23 -94 11 -140 -8
-30 -51 -45 -125 -41 l-64 3 -3 178 -2 177 83 0 c51 0 88 -5 95 -12z m250 0
c7 -7 12 -41 12 -85 0 -61 -3 -74 -19 -83 -19 -10 -19 -11 5 -82 30 -89 30
-98 0 -98 -31 0 -52 29 -72 102 -24 85 -42 76 -46 -19 l-3 -78 -30 0 -30 0 -3
178 -2 177 88 0 c55 0 92 -4 100 -12z m372 -132 c0 -147 7 -176 40 -156 10 6
14 41 14 154 l1 146 37 0 38 0 0 -139 c0 -197 -12 -221 -109 -221 -42 0 -53 4
-70 26 -19 24 -21 40 -21 180 l0 154 35 0 35 0 0 -144z m348 122 c-3 -20 -10
-23 -55 -26 l-53 -3 0 -40 0 -39 50 0 c49 0 50 -1 50 -30 0 -29 -1 -30 -50
-30 l-50 0 0 -55 0 -55 56 0 c54 0 55 0 52 -27 l-3 -28 -85 0 -85 0 -3 178 -2
177 90 0 c89 0 91 -1 88 -22z m-2913 -562 c46 -40 48 -45 35 -62 -51 -64 -412
-493 -424 -503 -11 -9 -25 -2 -70 34 -31 25 -56 49 -56 52 0 16 435 523 449
523 9 0 38 -20 66 -44z m3839 -47 c58 -16 120 -84 136 -148 13 -54 2 -129 -22
-159 -6 -7 -9 -14 -7 -17 3 -2 62 -31 131 -64 70 -34 130 -66 133 -71 9 -15
-5 -30 -68 -73 l-55 -38 -135 71 -135 71 -26 -23 -26 -23 75 -100 c41 -55 74
-105 75 -112 0 -7 -25 -31 -56 -53 -41 -31 -58 -39 -68 -31 -7 6 -73 93 -147
194 -73 100 -159 217 -191 261 -32 43 -58 84 -58 92 0 20 260 210 308 224 39
12 91 11 136 -1z m-3156 -381 c94 -40 137 -63 167 -93 68 -67 83 -167 34 -229
-24 -30 -88 -66 -119 -66 -26 0 -25 -7 7 -55 33 -48 42 -119 20 -162 -23 -44
-81 -91 -123 -99 -20 -4 -59 -4 -87 -1 -69 8 -291 100 -295 122 -5 21 247 635
260 635 5 0 66 -24 136 -52z m2277 -414 c84 -258 104 -329 93 -336 -20 -13
-117 -40 -130 -36 -6 2 -24 44 -40 93 -16 50 -63 192 -104 316 -40 124 -74
231 -74 237 0 10 101 50 132 51 13 1 39 -67 123 -325z m-1000 142 c76 -34 139
-97 177 -175 29 -58 33 -75 33 -151 0 -75 -4 -93 -32 -152 -38 -81 -91 -136
-169 -174 -53 -26 -69 -29 -154 -29 -85 0 -101 3 -154 29 -76 37 -140 101
-174 174 -23 49 -27 70 -27 147 0 78 4 98 28 150 47 101 139 178 244 205 61
15 167 4 228 -24z"/>
<path d="M10832 9153 l-61 -98 27 -12 c15 -6 44 -14 65 -18 l37 -7 0 116 c0
64 -2 116 -3 116 -2 0 -31 -44 -65 -97z"/>
<path d="M7580 8543 c0 -14 83 -193 89 -193 10 0 96 78 91 82 -18 15 -170 118
-175 118 -3 0 -5 -3 -5 -7z"/>
<path d="M12270 8416 c-19 -13 -62 -41 -95 -61 l-60 -38 45 -38 c25 -22 48
-39 52 -39 4 0 30 45 58 100 28 55 47 100 43 99 -5 0 -24 -11 -43 -23z"/>
<path d="M6995 8150 l-38 -39 27 -22 c15 -12 53 -43 84 -70 31 -27 60 -49 63
-49 16 0 59 79 59 109 0 50 -64 111 -117 111 -32 0 -46 -7 -78 -40z"/>
<path d="M6623 7608 c-19 -22 -43 -61 -43 -72 0 -4 158 -96 166 -96 8 0 44 81
44 101 0 11 -15 36 -34 55 -43 43 -100 48 -133 12z"/>
<path d="M6900 7513 c-32 -12 -102 -96 -88 -108 13 -11 169 -95 177 -95 12 0
51 81 51 106 0 50 -92 114 -140 97z"/>
<path d="M9745 7041 c-146 -50 -393 -143 -480 -180 l-70 -30 -3 -292 c-2 -269
-1 -300 18 -373 63 -246 234 -448 475 -561 149 -70 195 -78 286 -46 146 50
302 149 390 249 104 118 181 268 205 401 18 103 20 590 2 614 -20 25 -135 73
-423 175 -170 61 -242 82 -269 81 -12 0 -70 -18 -131 -38z m228 -87 c92 -30
429 -153 435 -159 3 -2 -236 -4 -529 -4 -294 0 -527 3 -519 6 8 4 76 28 150
54 74 26 185 65 245 87 61 23 116 41 123 41 7 1 50 -11 95 -25z m-383 -302 c0
-60 8 -68 119 -111 153 -59 167 -60 311 -11 71 24 133 50 143 62 10 13 17 37
17 65 l0 44 63 -3 62 -3 -3 -70 c-2 -43 -9 -76 -18 -86 -7 -8 -14 -31 -14 -50
1 -32 1 -33 15 -15 12 16 15 17 15 4 0 -8 -7 -21 -15 -28 -8 -7 -15 -24 -15
-37 0 -22 2 -24 15 -13 12 10 15 10 15 -3 0 -8 -7 -20 -15 -27 -20 -17 -20
-61 0 -54 11 5 13 2 9 -10 -3 -9 -10 -16 -15 -16 -5 0 -9 -14 -9 -31 0 -24 4
-30 15 -25 10 3 15 -1 15 -13 0 -28 26 -47 45 -31 8 7 15 21 15 31 0 12 5 16
15 13 11 -5 15 1 15 25 0 19 -6 34 -15 37 -18 7 -20 25 -3 21 19 -3 21 38 3
53 -19 16 -20 31 0 24 11 -5 15 1 15 19 0 13 -7 30 -15 37 -8 7 -15 16 -15 21
0 5 7 6 15 3 22 -9 19 32 -6 72 -15 25 -19 46 -17 91 l3 58 63 3 62 3 0 -218
c-1 -229 -5 -267 -46 -375 -63 -166 -216 -331 -378 -406 -154 -73 -174 -74
-296 -23 -219 91 -384 272 -455 501 -14 43 -18 104 -22 280 -4 209 -3 225 14
231 10 4 80 7 156 8 l137 2 0 -49z"/>
<path d="M9590 6526 c0 -13 -12 -16 -57 -16 -67 0 -131 -15 -155 -38 -16 -13
-18 -35 -18 -168 l0 -153 30 -34 c19 -22 62 -49 115 -73 l85 -38 0 -82 c0 -73
3 -84 25 -108 14 -15 46 -37 73 -49 42 -20 64 -22 197 -22 138 0 154 2 194 23
24 13 57 37 73 54 l30 31 -4 334 c-1 184 -6 339 -9 345 -4 6 -18 4 -38 -6
l-31 -17 0 -297 c-1 -314 -4 -338 -47 -330 -17 3 -18 22 -21 302 l-2 298 -23
-6 c-105 -31 -173 -31 -249 -1 -17 7 -18 -13 -20 -291 -3 -278 -4 -299 -21
-302 -45 -9 -47 3 -47 318 0 270 -2 298 -17 312 -28 25 -63 32 -63 14z m0
-261 c0 -85 -4 -145 -10 -145 -14 0 -62 22 -92 43 -28 18 -28 20 -28 126 0 59
3 111 7 114 3 4 33 7 65 7 l58 0 0 -145z m338 -14 c2 -35 -1 -61 -7 -61 -17 0
-81 66 -81 84 0 29 37 57 62 47 20 -7 23 -16 26 -70z m-52 -153 c40 -31 44
-38 44 -83 0 -63 -32 -83 -70 -45 -16 16 -20 33 -20 85 0 36 4 65 9 65 4 0 21
-10 37 -22z"/>
<path d="M7689 5848 c-14 -53 -5 -166 15 -186 37 -38 72 40 63 141 -6 63 -19
87 -48 87 -13 0 -22 -12 -30 -42z"/>
<path d="M12070 5871 c-26 -49 1 -127 37 -105 22 13 30 88 12 110 -16 20 -36
18 -49 -5z"/>
<path d="M10341 4076 c-8 -9 -11 -52 -9 -126 3 -96 6 -114 21 -124 14 -9 21
-7 31 6 16 21 21 194 7 231 -11 30 -32 35 -50 13z"/>
<path d="M9610 4035 c0 -45 1 -46 28 -43 24 3 27 7 27 43 0 36 -3 40 -27 43
-27 3 -28 2 -28 -43z"/>
<path d="M9850 4035 c0 -39 3 -45 20 -45 26 0 44 43 30 71 -6 10 -20 19 -30
19 -17 0 -20 -7 -20 -45z"/>
<path d="M9850 3885 c0 -56 0 -56 28 -53 25 3 27 6 27 53 0 47 -2 50 -27 53
-28 3 -28 3 -28 -53z"/>
<path d="M10090 4036 c0 -45 1 -46 31 -46 29 0 30 1 27 43 -3 38 -6 42 -30 45
-27 3 -28 2 -28 -42z"/>
<path d="M11689 3313 c-37 -26 -68 -52 -69 -56 -3 -12 73 -117 84 -117 11 0
117 78 133 99 32 41 2 106 -52 117 -25 5 -42 -3 -96 -43z"/>
<path d="M8618 2915 l-26 -64 43 -16 c55 -21 83 -17 108 17 30 40 15 77 -43
105 -25 12 -48 22 -51 23 -3 0 -17 -29 -31 -65z"/>
<path d="M8516 2668 c-15 -33 -23 -64 -19 -68 4 -3 27 -15 51 -25 52 -22 89
-13 112 28 13 24 13 30 0 55 -12 22 -86 70 -111 72 -4 0 -18 -28 -33 -62z"/>
<path d="M9766 2705 c-153 -54 -180 -256 -47 -350 37 -26 51 -30 110 -30 58 0
74 4 108 28 57 39 88 99 87 167 -1 90 -53 160 -138 185 -60 18 -70 18 -120 0z"/>
</g>
</svg>
