<?xml version="1.0" encoding="UTF-8" standalone="no"?>
<!-- Created with Inkscape (http://www.inkscape.org/) -->

<svg
   xmlns:dc="http://purl.org/dc/elements/1.1/"
   xmlns:cc="http://creativecommons.org/ns#"
   xmlns:rdf="http://www.w3.org/1999/02/22-rdf-syntax-ns#"
   xmlns:svg="http://www.w3.org/2000/svg"
   xmlns="http://www.w3.org/2000/svg"
   xmlns:sodipodi="http://sodipodi.sourceforge.net/DTD/sodipodi-0.dtd"
   xmlns:inkscape="http://www.inkscape.org/namespaces/inkscape"
   width="202mm"
   height="202mm"
   viewBox="0 0 202 202"
   version="1.1"
   id="svg142"
   sodipodi:docname="icon.svg"
   inkscape:export-filename="C:\Users\Guillaume\Desktop\favicon.png"
   inkscape:export-xdpi="12.574258"
   inkscape:export-ydpi="12.574258"
   inkscape:version="0.92.3 (2405546, 2018-03-11)">
  <defs
     id="defs136" />
  <sodipodi:namedview
     id="base"
     pagecolor="#ffffff"
     bordercolor="#666666"
     borderopacity="1.0"
     inkscape:pageopacity="0.0"
     inkscape:pageshadow="2"
     inkscape:zoom="0.35"
     inkscape:cx="-121.42857"
     inkscape:cy="560"
     inkscape:document-units="mm"
     inkscape:current-layer="layer1"
     showgrid="false"
     inkscape:window-width="1920"
     inkscape:window-height="1017"
     inkscape:window-x="1912"
     inkscape:window-y="-8"
     inkscape:window-maximized="1" />
  <metadata
     id="metadata139">
    <rdf:RDF>
      <cc:Work
         rdf:about="">
        <dc:format>image/svg+xml</dc:format>
        <dc:type
           rdf:resource="http://purl.org/dc/dcmitype/StillImage" />
        <dc:title></dc:title>
      </cc:Work>
    </rdf:RDF>
  </metadata>
  <g
     inkscape:label="Calque 1"
     inkscape:groupmode="layer"
     id="layer1"
     transform="translate(0,-95)">
    <g
       id="g184"
       transform="translate(-63.294639,24.654205)">
      <g
         id="g64"
         transform="matrix(0.35277777,0,0,-0.35277777,166.09957,170.04352)">
        <path
           inkscape:connector-curvature="0"
           d="m 0,0 c -6.662,0 -15.032,-2.445 -15.032,-15.54 0,-0.667 -0.441,-9.988 3.109,-15.094 0.887,-1.333 2.887,-2.884 5.991,-5.107 l 20.545,-14.184 -0.147,38.604 C 14.466,-6.662 11.104,0 0,0"
           style="fill:#979f32;fill-opacity:1;fill-rule:nonzero;stroke:none"
           id="path66" />
      </g>
      <g
         id="g68"
         transform="matrix(0.35277777,0,0,-0.35277777,166.98289,196.43331)">
        <path
           inkscape:connector-curvature="0"
           d="m 0,0 -20.723,13.982 v -41.344 c 0.241,-5.485 2.223,-11.499 7.408,-14.818 1.775,-1.109 4.436,-2.218 8.875,-2.218 5.109,0 7.997,1.109 9.996,2.886 4.214,3.327 4.214,10.211 4.214,20.864 0,1.998 0.441,9.103 -3.105,14.431 C 4.442,-2.89 1.116,-0.89 0,0"
           style="fill:#979f32;fill-opacity:1;fill-rule:nonzero;stroke:none"
           id="path70" />
      </g>
      <g
         id="g72"
         transform="matrix(0.35277777,0,0,-0.35277777,197.06824,223.04062)">
        <path
           inkscape:connector-curvature="0"
           d="m 0,0 c -21.51,-18.145 -32.297,-32.174 -89.514,-32.174 -57.206,0 -67.993,14.029 -89.508,32.174 v 52.392 c -37.987,13.028 -70.462,27.805 -70.462,53.062 v 72.799 c 0,30.08 54.036,26.074 70.462,26.074 v 9.849 c 3.885,-2.811 18.642,-9.264 21.99,-10.542 0,0 0.007,-165.53 0.007,-177.385 0,-11.851 8.119,-18.772 15.031,-18.772 12.47,0 11.006,19.165 11.006,25.434 v 161.768 c 0,0 32.821,-10.417 41.474,-13.134 8.66,2.717 41.48,13.134 41.48,13.134 V 32.911 c 0,-6.269 -1.458,-25.434 11.003,-25.434 6.914,0 15.038,6.921 15.038,18.772 0,11.855 0.007,177.385 0.007,177.385 3.344,1.278 18.111,7.731 21.986,10.542 z m 54.519,219.48 8.665,-8.669 c 1.756,-1.638 2.863,-3.948 2.863,-6.512 v -1.216 -10.259 L 55.753,203.12 V 191.505 L 66.047,181.21 V 168.68 L 55.753,178.976 V 167.359 L 66.047,157.065 V 144.537 L 55.753,154.829 V 143.214 L 66.047,132.919 V 122.4 121.189 c 0,-1.14 -0.231,-2.228 -0.625,-3.231 l -9.669,9.679 v -15.344 l 0.087,-0.095 h -0.087 v -0.757 l -6.831,-6.829 -6.831,6.829 v 0.757 h -0.077 l 0.095,0.095 v 15.344 l -9.671,-9.673 c -0.394,1.001 -0.623,2.085 -0.623,3.225 v 1.211 10.523 l 10.294,10.291 v 11.615 l -10.294,-10.29 v 12.526 l 10.294,10.294 v 11.617 L 31.815,168.682 v 12.53 l 10.294,10.293 V 203.12 L 31.815,192.828 v 10.255 1.216 c 0,2.5 1.046,4.763 2.722,6.39 l 8.8,8.804 V 265.13 H -0.177 v -30.156 c 0,-5.214 -20.51,-13.714 -41.815,-21.136 -23.02,-8.021 -46.97,-14.783 -46.97,-14.783 0,0 -22.604,6.382 -45.001,14.101 -21.993,7.578 -43.784,16.445 -43.784,21.818 v 30.156 h -98.614 V 154.151 c 0,-49.084 18.935,-98.473 53.312,-139.067 34.103,-40.266 80.321,-68.725 133.717,-82.345 53.394,13.62 99.613,42.079 133.716,82.341 34.378,40.598 53.312,89.989 53.312,139.071 V 265.13 H 54.519 Z"
           style="fill:#979f32;fill-opacity:1;fill-rule:nonzero;stroke:none"
           id="path74" />
      </g>
      <g
         id="g76"
         transform="matrix(0.35277777,0,0,-0.35277777,118.35452,164.19133)">
        <path
           inkscape:connector-curvature="0"
           d="m 0,0 v -59.432 c 0,-7.305 15.315,-16.633 44.103,-26.834 V 10.797 C 29.176,10.797 0,13.364 0,0"
           style="fill:#979f32;fill-opacity:1;fill-rule:nonzero;stroke:none"
           id="path78" />
      </g>
      <g
         id="g80"
         transform="matrix(0.35277777,0,0,-0.35277777,165.55386,98.357987)">
        <path
           inkscape:connector-curvature="0"
           d="m 0,0 c -21.833,-7.024 -54.496,-17.769 -88.562,-29.821 -41.674,-14.749 -69.192,-25.73 -86.945,-33.405 h 308.294 c 0.646,1.549 2.175,2.635 3.95,2.635 h 3.41 c 1.782,0 3.298,-1.086 3.943,-2.635 h 31.424 C 157.759,-55.554 130.241,-44.57 88.562,-29.821 54.483,-17.762 21.826,-7.021 0,0"
           style="fill:#979f32;fill-opacity:1;fill-rule:nonzero;stroke:none"
           id="path82" />
      </g>
      <g
         id="g84"
         transform="matrix(0.35277777,0,0,-0.35277777,240.88433,168.65947)">
        <path
           inkscape:connector-curvature="0"
           d="m 0,0 c 0,-55.349 -21.162,-110.823 -59.586,-156.2 -39.239,-46.336 -92.323,-78.194 -153.949,-92.501 -61.627,14.307 -114.711,46.165 -153.95,92.501 -38.424,45.377 -59.592,100.851 -59.592,156.2 v 147.464 c 14.478,7.675 46.693,22.413 116.139,46.986 40.003,14.159 78.109,26.519 97.403,32.669 19.292,-6.15 57.398,-18.51 97.403,-32.669 C -46.688,169.877 -14.472,155.139 0,147.464 Z m -213.535,273.457 c 0,0 -206.987,-73.985 -257.726,-104.029 V 0 c 0,-132.563 100.912,-262.151 257.726,-293.914 C -56.723,-262.151 44.189,-132.563 44.189,0 v 169.428 c -32.501,21.627 -257.724,104.029 -257.724,104.029"
           style="fill:#979f32;fill-opacity:1;fill-rule:nonzero;stroke:none"
           id="path86" />
      </g>
    </g>
  </g>
</svg>
